<svg id="Layer_1" xmlns="http://www.w3.org/2000/svg" viewBox="0 0 16.97 16.91"><path d="M.5.51s0,7.92.01,8.53c.32.44,1.24.15,1.88.27.28.04.45.11.47.3.12,1.06.2,2.25-1.13,2.86-.26.13-.59.28-.87.38-.31.12-.39.04-.36.12,0,.73,0,1.98,0,2.76,0,.39-.01.64.01.66.02.02,1.59,0,2.27,0,1.74-.07,3.49-.9,3.58-3.24,0-1.65,0-10.37,0-12.29v-.29c0-.08.04-.07-.08-.07-1.06-.02-5.45.01-5.78,0h0Z" fill="none" stroke="currentColor" stroke-linejoin="round"/><path d="M10.6.51s0,7.92.01,8.53c.32.44,1.24.15,1.88.27.28.04.45.11.47.3.12,1.06.2,2.25-1.13,2.86-.26.13-.59.28-.87.38-.31.12-.39.04-.36.12,0,.73,0,1.98,0,2.76,0,.39-.01.64.01.66.02.02,1.59,0,2.27,0,1.74-.07,3.49-.9,3.58-3.24,0-1.65,0-10.37,0-12.29v-.29c0-.08.04-.07-.08-.07-1.06-.02-5.45.01-5.78,0h0Z" fill="none" stroke="currentColor" stroke-linejoin="round"/></svg>