<svg id="icon-book" xmlns="http://www.w3.org/2000/svg" viewBox="0 0 15.86 13.58"><path d="M.25.75C.25.47.47.25.75.25l5.44.83s1.75.17,1.75,1.66v9.49l-7.18-.83c-.28,0-.5-.22-.5-.5V.75Z" fill="none" stroke="currentColor" stroke-miterlimit="10" stroke-width=".5"/><path d="M15.61.75c0-.28-.22-.5-.5-.5l-5.44.83s-1.75.17-1.75,1.66v9.49s7.18-.83,7.18-.83c.28,0,.5-.22.5-.5V.75Z" fill="none" stroke="currentColor" stroke-miterlimit="10" stroke-width=".5"/><polygon points="7.44 12.49 7.98 13.48 8.43 12.49 7.44 12.49" fill="currentColor" stroke="currentColor" stroke-linejoin="round" stroke-width=".2"/><line x1="9.64" y1="3.45" x2="14.17" y2="2.77" fill="none" stroke="currentColor" stroke-linecap="round" stroke-linejoin="round" stroke-width=".5"/><line x1="9.64" y1="5.12" x2="14.17" y2="4.44" fill="none" stroke="currentColor" stroke-linecap="round" stroke-linejoin="round" stroke-width=".5"/><line x1="9.64" y1="6.79" x2="14.17" y2="6.11" fill="none" stroke="currentColor" stroke-linecap="round" stroke-linejoin="round" stroke-width=".5"/><line x1="9.64" y1="8.46" x2="14.17" y2="7.78" fill="none" stroke="currentColor" stroke-linecap="round" stroke-linejoin="round" stroke-width=".5"/><line x1="9.64" y1="10.13" x2="14.17" y2="9.45" fill="none" stroke="currentColor" stroke-linecap="round" stroke-linejoin="round" stroke-width=".5"/><line x1="1.83" y1="9.45" x2="6.37" y2="10.12" fill="none" stroke="currentColor" stroke-linecap="round" stroke-linejoin="round" stroke-width=".5"/><line x1="1.83" y1="7.78" x2="6.36" y2="8.45" fill="none" stroke="currentColor" stroke-linecap="round" stroke-linejoin="round" stroke-width=".5"/><line x1="1.82" y1="6.11" x2="6.36" y2="6.78" fill="none" stroke="currentColor" stroke-linecap="round" stroke-linejoin="round" stroke-width=".5"/><line x1="1.82" y1="4.44" x2="6.35" y2="5.11" fill="none" stroke="currentColor" stroke-linecap="round" stroke-linejoin="round" stroke-width=".5"/><line x1="1.81" y1="2.78" x2="6.35" y2="3.44" fill="none" stroke="currentColor" stroke-linecap="round" stroke-linejoin="round" stroke-width=".5"/></svg>