<svg id="icon-calendar" xmlns="http://www.w3.org/2000/svg" viewBox="0 0 16 16.09"><path d="M2.5,2.31c2.71-.02,9.92,0,10.9,0,1.34,0,2.25,1.26,2.09,2.54,0,2.55,0,6.07,0,8.64.03.34-.28,1.25-.69,1.56-.44.43-1.22.56-1.4.54-2.44,0-9.78,0-10.78,0-2.18-.15-2.16-2.02-2.09-3.8,0-2.01,0-4.89,0-6.94-.15-1.17.62-2.42,1.87-2.53h.1Z" fill="none" stroke="currentColor" stroke-miterlimit="10"/><line x1="12.02" y1=".5" x2="12.02" y2="4.11" fill="none" stroke="currentColor" stroke-linecap="round" stroke-miterlimit="10"/><line x1="4.33" y1=".5" x2="4.33" y2="4.11" fill="none" stroke="currentColor" stroke-linecap="round" stroke-miterlimit="10"/><path d="M.52,6.73h14.96" fill="none" stroke="currentColor" stroke-linecap="round" stroke-miterlimit="10"/><path d="M5.81,12.58v-.43l1.24-1.65c.07-.09.13-.19.17-.29.04-.1.06-.2.06-.29h0c0-.15-.04-.26-.12-.33s-.2-.12-.35-.12c-.14,0-.26.04-.35.13-.09.08-.15.21-.16.36h0s-.52,0-.52,0h0c.04-.31.16-.55.33-.71.18-.17.41-.25.69-.25.32,0,.57.08.74.24s.26.39.26.68h0c0,.13-.03.26-.08.4-.05.14-.12.27-.22.39l-1.03,1.4h1.34v.47h-2Z" fill="currentColor" stroke-width="0"/><path d="M9.22,12.62c-.31,0-.56-.09-.73-.28-.17-.19-.26-.45-.26-.79h0c0-.16.02-.32.06-.49.04-.17.1-.34.18-.5l.77-1.53h.54l-.91,1.77v-.09c.09-.16.24-.24.45-.24.28,0,.49.09.65.28.15.18.23.45.23.78h0c0,.35-.09.61-.26.8-.17.19-.42.28-.73.28ZM9.22,12.14c.16,0,.28-.05.37-.15s.13-.24.13-.42h0c0-.2-.04-.35-.13-.46s-.22-.16-.38-.16c-.15,0-.26.05-.34.16-.08.11-.12.26-.12.46h0c0,.18.04.32.13.42.09.1.21.14.36.14Z" fill="currentColor" stroke-width="0"/></svg>