<svg id="Layer_1" xmlns="http://www.w3.org/2000/svg" viewBox="0 0 14.52 13.45"><path d="M12.19,3.44c3.07,4.03-.5,10.16-5.62,10.01C2.94,13.44,0,10.5,0,6.87-.06.88,7.4-2.13,11.18,2.22c.26.26-.09.61-.35.35C7.38-1.47.42,1.35.5,6.87c0,3.35,2.72,6.08,6.07,6.08,4.73.13,8-5.49,5.27-9.21-.22-.26.13-.55.35-.3Z" fill="currentColor" stroke-width="0"/><path d="M11.78,3.1l-.36.36c-.1-.14-.21-.28-.32-.4l.36-.36c.13.12.24.26.32.4Z" fill="currentColor" stroke-width="0"/><path d="M11.42,3.46l-5.24,5.24c-.05.04-.11.07-.18.07-.07,0-.13-.03-.19-.07l-3.44-3.45c-.1-.1-.1-.26,0-.36.09-.1.26-.1.36,0l3.27,3.27,5.1-5.1c.11.12.22.26.32.4Z" fill="currentColor" stroke-width="0"/><path d="M14.44.44l-2.66,2.66s-.19-.28-.32-.4L14.08.08c.1-.1.26-.1.36,0,.1.09.1.26,0,.36Z" fill="currentColor" stroke-width="0"/></svg>