<svg xmlns="http://www.w3.org/2000/svg" viewBox="0 0 14.25 18.28">
    <path d="M.5,1.69v14.89c0,.66.53,1.19,1.19,1.19h10.87c.66,0,1.19-.53,1.19-1.19V5.53c0-.32-.13-.62-.35-.84l-3.76-3.76c-.22-.22-.52-.34-.83-.35l-7.11-.08c-.66,0-1.2.53-1.2,1.19Z" fill="none" stroke="currentColor" stroke-miterlimit="10"/>
    <path d="M8.81.58v4.11c0,.28.23.51.51.51h4.43" fill="none" stroke="currentColor" stroke-miterlimit="10"/>
    <rect x="2.64" y="8.78" width="3.5" height=".8" rx=".4" ry=".4" fill="currentColor" stroke-width="0"/>
    <rect x="2.64" y="13.64" width="8.98" height=".8" rx=".4" ry=".4" fill="currentColor" stroke-width="0"/>
    <rect x="2.64" y="12.02" width="8.98" height=".8" rx=".4" ry=".4" fill="currentColor" stroke-width="0"/>
    <rect x="2.64" y="10.4" width="8.98" height=".8" rx=".4" ry=".4" fill="currentColor" stroke-width="0"/>
</svg>