<svg id="icon-office" xmlns="http://www.w3.org/2000/svg" viewBox="0 0 14.77 12.51"><path d="M3.53,1.23s0,5.66,0,5.7c0,0,0,.52,0,1.19,0,1.28,0,3.14,0,3.16,0,.05,0,.31.21.51.13.13.31.21.51.21h6.23c.4,0,.73-.33.73-.73V1.23c0-.4-.33-.73-.73-.73h-6.23c-.4,0-.73.33-.73.73Z" fill="none" stroke="currentColor" stroke-miterlimit="10"/><path d="M3.53,6.16H1.08c-.32,0-.58.34-.58.77v4.3c0,.43.26.77.58.77h2.67" fill="none" stroke="currentColor" stroke-linecap="round" stroke-linejoin="round"/><path d="M11.22,3.81h2.33c.4,0,.73.37.73.83v6.53c0,.46-.33.84-.74.84h-2.32" fill="none" stroke="currentColor" stroke-linecap="round" stroke-miterlimit="10"/><line x1="5.7" y1="3.47" x2="9.05" y2="3.47" fill="none" stroke="currentColor" stroke-linecap="round" stroke-miterlimit="10" stroke-width=".5"/><line x1="5.7" y1="3.47" x2="9.05" y2="3.47" fill="none" stroke="currentColor" stroke-linecap="round" stroke-miterlimit="10" stroke-width=".5"/><line x1="5.7" y1="5.32" x2="9.05" y2="5.32" fill="none" stroke="currentColor" stroke-linecap="round" stroke-miterlimit="10" stroke-width=".5"/><line x1="5.7" y1="7.18" x2="9.05" y2="7.18" fill="none" stroke="currentColor" stroke-linecap="round" stroke-miterlimit="10" stroke-width=".5"/><line x1="5.7" y1="9.04" x2="9.05" y2="9.04" fill="none" stroke="currentColor" stroke-linecap="round" stroke-miterlimit="10" stroke-width=".5"/></svg>