<svg id="Layer_1" xmlns="http://www.w3.org/2000/svg" viewBox="0 0 16.81 12.89"><path d="M14.98,3.17C15.83,10.52,5.79,15.31.15,11.44c-.32-.16.49-.02.81-.04,1.42.01,3.18-.58,4.02-1.42-.57-.04-1.06-.17-1.59-.41-.77-.33-2.99-2.13-1.87-1.95s1.33.15,1.55.15.36,0,.23-.1c-1.28-.26-2.54-1.57-2.6-2.86,0-.18-.07-.42.05-.37.48.22.85.34,1.22.43.17.04.24-.03.18-.1C1.18,3.71.29,1.5,1.01.46c-.03-.21.41.39.63.62,1.13,1.11,2.87,2.16,4.29,2.54.95.26,2.45.32,2.19.32-.16-.03.16.07.15-.08-.25-1.3.39-2.77,1.61-3.35,1.33-.74,3-.47,4.21.5.2-.06,1.19-.34,1.7-.57,1.13-.53-.49,1.19-.73,1.33-.16.15-.34.22-.37.23-.05.02.48-.04.97-.15.51-.09.78-.27,1.04-.44.36-.01-1.06,1.34-1.65,1.69l-.06.1Z" fill="none" stroke="currentColor" stroke-linecap="round" stroke-linejoin="round" stroke-width=".15"/></svg>