<svg id="icon-users" xmlns="http://www.w3.org/2000/svg" viewBox="0 0 15.84 14.28"><path d="M8.88,3.46c-.07,3.95-5.94,3.95-6.01,0,.07-3.95,5.94-3.95,6.01,0Z" fill="none" stroke="currentColor" stroke-linecap="round" stroke-miterlimit="10"/><path d="M.5,14.28c-.28,0-.5-.22-.5-.5v-1.17c0-.53,0-1.07,0-1.42,0-1.77,1.44-3.21,3.21-3.21h5.33c1.77,0,3.21,1.44,3.21,3.21v2.59c0,.28-.22.5-.5.5h0c-.28,0-.5-.22-.5-.5v-2.59c0-1.22-.99-2.21-2.21-2.21H3.21c-1.22,0-2.21.99-2.21,2.21,0,.35,0,.89,0,1.42v1.17c0,.28-.22.5-.5.5h0Z" fill="currentColor" stroke-width="0"/><path d="M10.5.66c3.69.06,3.69,5.55,0,5.61" fill="none" stroke="currentColor" stroke-linecap="round" stroke-miterlimit="10"/><path d="M15.34,13.78c0-.64,0-1.95,0-2.59,0-1.5-1.21-2.71-2.71-2.71" fill="none" stroke="currentColor" stroke-linecap="round" stroke-miterlimit="10"/></svg>